<svg width="24" height="24" viewBox="0 0 24 24" fill="none" xmlns="http://www.w3.org/2000/svg">
<path d="M19.8947 3H4.10526C3.54691 3 3.01143 3.2231 2.61662 3.62023C2.2218 4.01736 2 4.55598 2 5.1176V14.6468C2 15.2084 2.2218 15.747 2.61662 16.1442C3.01143 16.5413 3.54691 16.7644 4.10526 16.7644H6.21053V19.9408C6.21045 20.1403 6.26642 20.3358 6.37198 20.5047C6.47754 20.6736 6.6284 20.8091 6.80718 20.8955C6.98595 20.9819 7.18536 21.0158 7.38243 20.9932C7.57951 20.9706 7.76622 20.8924 7.92105 20.7677L12.8958 16.7644H19.8947C20.4531 16.7644 20.9886 16.5413 21.3834 16.1442C21.7782 15.747 22 15.2084 22 14.6468V5.1176C22 4.55598 21.7782 4.01736 21.3834 3.62023C20.9886 3.2231 20.4531 3 19.8947 3ZM7.78947 11.4704C7.47719 11.4704 7.17191 11.3773 6.91226 11.2027C6.6526 11.0282 6.45022 10.7802 6.33072 10.49C6.21121 10.1998 6.17994 9.88044 6.24087 9.57236C6.30179 9.26428 6.45217 8.98129 6.67299 8.75917C6.89381 8.53706 7.17515 8.3858 7.48144 8.32452C7.78772 8.26324 8.1052 8.29469 8.39371 8.4149C8.68223 8.5351 8.92882 8.73867 9.10232 8.99984C9.27582 9.26102 9.36842 9.56808 9.36842 9.8822C9.36842 10.3034 9.20207 10.7074 8.90596 11.0052C8.60985 11.3031 8.20824 11.4704 7.78947 11.4704ZM12 11.4704C11.6877 11.4704 11.3824 11.3773 11.1228 11.2027C10.8631 11.0282 10.6607 10.7802 10.5412 10.49C10.4217 10.1998 10.3905 9.88044 10.4514 9.57236C10.5123 9.26428 10.6627 8.98129 10.8835 8.75917C11.1043 8.53706 11.3857 8.3858 11.692 8.32452C11.9982 8.26324 12.3157 8.29469 12.6042 8.4149C12.8928 8.5351 13.1394 8.73867 13.3128 8.99984C13.4863 9.26102 13.5789 9.56808 13.5789 9.8822C13.5789 10.3034 13.4126 10.7074 13.1165 11.0052C12.8204 11.3031 12.4188 11.4704 12 11.4704ZM16.2105 11.4704C15.8982 11.4704 15.593 11.3773 15.3333 11.2027C15.0737 11.0282 14.8713 10.7802 14.7518 10.49C14.6323 10.1998 14.601 9.88044 14.6619 9.57236C14.7228 9.26428 14.8732 8.98129 15.094 8.75917C15.3149 8.53706 15.5962 8.3858 15.9025 8.32452C16.2088 8.26324 16.5262 8.29469 16.8148 8.4149C17.1033 8.5351 17.3499 8.73867 17.5234 8.99984C17.6969 9.26102 17.7895 9.56808 17.7895 9.8822C17.7895 10.3034 17.6231 10.7074 17.327 11.0052C17.0309 11.3031 16.6293 11.4704 16.2105 11.4704Z" fill="white"/>
</svg>
